HIERARCHY
ROOT Hip
{
  OFFSET 0.0 0.0 0.0
  CHANNELS 6 Xposition Yposition Zposition Xrotation Yrotation Zrotation
  JOINT LowerSpine
  {
    OFFSET 0.0 0.061367 -0.03653
    CHANNELS 3 Xrotation Yrotation Zrotation
    JOINT MiddleSpine
    {
      OFFSET 0.0 0.056002 0.002633
      CHANNELS 3 Xrotation Yrotation Zrotation
      JOINT Chest
      {
        OFFSET 0.0 0.069296 -0.013882
        CHANNELS 3 Xrotation Yrotation Zrotation
        JOINT Neck
        {
          OFFSET 0.0 0.156156 -0.002923
          CHANNELS 3 Xrotation Yrotation Zrotation
          JOINT Head
          {
            OFFSET 0.0 0.088183 0.023986
            CHANNELS 3 Xrotation Yrotation Zrotation
            End Site
            {
              OFFSET 1e-06 0.123215 0.003678
            }
          }
        }
        JOINT LClavicle
        {
          OFFSET 0.014189 0.150698 0.046467
          CHANNELS 3 Xrotation Yrotation Zrotation
          JOINT LShoulder
          {
            OFFSET 0.082893 0.021616 -0.034976
            CHANNELS 3 Xrotation Yrotation Zrotation
            JOINT LForearm
            {
              OFFSET 0.195645 -0.000695 -0.001695
              CHANNELS 3 Xrotation Yrotation Zrotation
              JOINT LHand
              {
                OFFSET 0.163209 0.000474 -0.000977
                CHANNELS 3 Xrotation Yrotation Zrotation
                End Site
                {
                  OFFSET 0.0 0.006864 0.0
                }
              }
            }
          }
        }
        JOINT RClavicle
        {
          OFFSET -0.014189 0.150698 0.046467
          CHANNELS 3 Xrotation Yrotation Zrotation
          JOINT RShoulder
          {
            OFFSET -0.082908 0.021619 -0.034982
            CHANNELS 3 Xrotation Yrotation Zrotation
            JOINT RForearm
            {
              OFFSET -0.195645 -0.000695 -0.001695
              CHANNELS 3 Xrotation Yrotation Zrotation
              JOINT RHand
              {
                OFFSET -0.163209 0.000474 -0.000977
                CHANNELS 3 Xrotation Yrotation Zrotation
                End Site
                {
                  OFFSET 0.0 0.006864 0.0
                }
              }
            }
          }
        }
      }
    }
  }
  JOINT RThigh
  {
    OFFSET -0.072558 0.02774 -0.005953
    CHANNELS 3 Xrotation Yrotation Zrotation
    JOINT RShin
    {
      OFFSET -0.005253 -0.285537 0.0
      CHANNELS 3 Xrotation Yrotation Zrotation
      JOINT RFoot
      {
        OFFSET 0.0 -0.28038 0.0
        CHANNELS 3 Xrotation Yrotation Zrotation
        JOINT RToe
        {
          OFFSET 0.0 -0.030816 0.064441
          CHANNELS 3 Xrotation Yrotation Zrotation
          End Site
          {
            OFFSET 0.0 0.0 0.043231
          }
        }
      }
    }
  }
  JOINT LThigh
  {
    OFFSET 0.072557 0.027741 -0.005953
    CHANNELS 3 Xrotation Yrotation Zrotation
    JOINT LShin
    {
      OFFSET 0.005253 -0.285539 0.0
      CHANNELS 3 Xrotation Yrotation Zrotation
      JOINT LFoot
      {
        OFFSET 0.0 -0.28038 0.0
        CHANNELS 3 Xrotation Yrotation Zrotation
        JOINT LToe
        {
          OFFSET 0.0 -0.030816 0.064441
          CHANNELS 3 Xrotation Yrotation Zrotation
          End Site
          {
            OFFSET 0.0 0.0 0.043231
          }
        }
      }
    }
  }
}
MOTION
Frames: 13
Frame Time: 0.03333333333333333
0.176078 0.57429 1.781978 8.558759 -19.774559 5.429221 -0.958466 -0.18661 0.097452 -2.036109 -0.199924 0.934348 -12.181654 -5.211563 2.77772 -0.503676 0.309753 -0.088807 0.052322 -0.206195 -0.000866 -0.170914 0.310622 -14.923968 24.658007 -26.919594 -63.138725 11.283435 -23.304626 -2.076012 0.02367 0.05169 -0.034805 0.212014 1.044788 12.945348 23.591694 17.916313 55.894066 5.095015 27.094082 3.976616 -0.050023 -0.070885 -0.026658 -15.612955 -10.532854 0.194354 12.021447 -7.028277 1.818371 -1.193682 0.816059 -0.079637 -0.097613 0.058013 0.12147 -24.71084 -0.485744 0.86272 22.977566 0.976006 1.11317 -0.662277 0.363261 0.379247 -0.002224 -0.003235 -0.016178 
0.172207 0.572066 1.780771 8.084129 -19.179258 4.943294 -0.965082 -0.150822 0.122433 -2.019505 -0.168996 0.932124 -11.932417 -4.994991 2.538027 -0.516003 0.332935 -0.075128 0.051561 -0.205807 0.006345 -0.257709 0.153561 -15.030614 25.02853 -26.553631 -63.157906 10.793887 -22.629015 -2.100772 0.026623 0.057498 -0.042859 0.183041 1.139623 12.892759 24.169416 17.31979 55.456017 5.575338 29.981535 3.889514 -0.053402 -0.075434 -0.029068 -14.867013 -10.129352 0.23912 12.890214 -6.872162 1.798077 -0.920709 0.806229 -0.09268 -0.115948 0.066226 0.120433 -24.862629 -0.524002 0.150666 21.965054 0.859315 1.061946 -0.681001 0.329108 0.387947 0.01044 -0.019086 -0.024397 
0.167503 0.570371 1.778485 7.846775 -20.253874 4.977738 -0.970249 -0.140115 0.163606 -2.006711 -0.156881 0.971408 -11.693015 -4.718677 2.355807 -0.536964 0.350696 -0.080231 0.053692 -0.20917 0.011134 -0.29541 0.010547 -15.130301 25.263216 -26.480997 -63.194115 10.610752 -22.317583 -2.00304 0.032128 0.070286 -0.054047 0.180953 1.146084 12.860591 24.63991 17.483414 55.140472 5.829197 31.626051 3.734304 -0.061928 -0.084265 -0.033038 -14.26206 -9.665187 0.404859 13.384703 -6.707151 1.739921 -0.683584 0.813376 -0.115649 -0.140843 0.08593 0.124762 -24.939081 -0.54266 -0.466559 21.305473 0.680546 1.05153 -0.686806 0.311576 0.406142 0.023916 -0.039856 -0.03423 
0.158296 0.569554 1.777332 8.029531 -23.352926 6.076104 -0.987412 -0.132753 0.191558 -1.97127 -0.158635 0.985622 -11.53253 -4.426201 2.271521 -0.57106 0.35017 -0.094104 0.054012 -0.187517 0.021586 -0.29191 -0.026596 -15.167701 25.634167 -26.324162 -63.199562 10.442117 -22.159067 -2.018999 0.032809 0.072792 -0.055457 0.211865 1.055709 12.940473 24.969656 18.102316 54.638409 5.967106 33.019356 3.629023 -0.043709 -0.093741 -0.032326 -13.123808 -9.139036 0.648213 13.373142 -6.472727 1.687882 -0.438614 0.843795 -0.098152 -0.1551 0.099284 0.121961 -24.700548 -0.479336 -1.027944 20.685061 0.701223 1.00411 -0.624875 0.32866 0.407602 0.026673 -0.044415 -0.035055 
0.14298 0.569271 1.777484 8.964488 -28.295347 8.256884 -1.011213 -0.120455 0.198115 -1.919386 -0.202582 0.976896 -11.276529 -4.221254 2.339481 -0.590826 0.3353 -0.116235 0.052042 -0.141539 0.038251 -0.230053 0.072743 -15.129431 26.02603 -25.9263 -63.060863 10.085758 -22.07416 -2.071224 0.028046 0.063898 -0.045386 0.286465 0.894544 13.014028 25.227308 18.789539 53.96265 5.97481 35.243389 3.662441 0.003642 -0.100165 -0.025615 -11.52322 -8.749461 1.066531 12.673095 -6.29164 1.700669 -0.201273 0.934251 -0.018589 -0.154258 0.101959 0.110141 -24.002111 -0.520306 -1.403359 19.93944 0.78876 1.019654 -0.487547 0.379591 0.389857 0.012599 -0.031132 -0.025339 
0.125064 0.569813 1.781293 10.647492 -35.875042 10.792922 -1.022422 -0.107038 0.187135 -1.789077 -0.263366 0.97283 -10.537859 -4.06895 2.499193 -0.626439 0.321402 -0.147927 0.051839 -0.102484 0.051896 -0.097359 0.205635 -15.088778 25.819124 -25.969116 -62.882492 9.42674 -21.685452 -2.165136 0.025829 0.06149 -0.037868 0.356902 0.68764 13.048985 25.437862 19.704741 53.188179 6.108166 37.090706 3.436871 0.046866 -0.115804 -0.019019 -9.187855 -8.670918 1.79423 11.830914 -6.169412 1.725512 0.03373 1.089797 0.071959 -0.154049 0.110903 0.102836 -22.833357 -0.823421 -1.476724 19.621916 0.61469 1.092554 -0.316842 0.42022 0.383253 0.005335 -0.025687 -0.01905 
0.103469 0.570836 1.787895 14.685373 -46.810429 15.286151 -1.044866 -0.096898 0.172977 -1.594483 -0.334812 0.969768 -9.613503 -3.982745 2.750678 -0.687912 0.295438 -0.178442 0.05122 -0.060707 0.063484 0.06713 0.367645 -15.079839 25.335201 -26.213135 -62.770061 8.652904 -21.316566 -2.31942 0.02296 0.05697 -0.028747 0.425788 0.463648 13.154575 25.753942 20.97056 51.836887 6.432027 38.65419 3.294322 0.083585 -0.1284 -0.012226 -6.828325 -8.735945 2.549092 11.037374 -6.058906 1.759547 0.255222 1.273172 0.177422 -0.152711 0.114633 0.095111 -21.453053 -1.042807 -1.365598 19.834841 0.460777 1.139231 -0.126161 0.460227 0.371491 -0.002936 -0.016585 -0.010805 
0.081473 0.571959 1.796236 25.759836 -63.570709 25.903456 -1.074464 -0.115164 0.129126 -1.304688 -0.395612 0.966989 -8.181521 -3.716237 3.27622 -0.807913 0.23867 -0.232319 0.048284 -0.008398 0.075277 0.234512 0.539203 -15.095927 24.532145 -26.603443 -62.798378 7.724332 -20.691069 -2.560115 0.019432 0.05144 -0.021509 0.465535 0.126917 13.266394 25.971228 23.156286 49.877026 7.000526 39.659912 3.11764 0.126385 -0.141543 -0.003142 -3.799071 -8.984706 3.462736 9.569221 -5.904503 1.882585 0.366213 1.482898 0.299148 -0.135359 0.134146 0.083027 -19.863617 -1.579508 -1.054861 20.476051 0.234106 1.227814 0.006768 0.543894 0.351792 -0.008476 -0.003051 -9.7e-05 
0.063618 0.572858 1.802852 76.975471 -79.618423 75.758171 -1.091239 -0.152432 0.099153 -1.024968 -0.436 0.993851 -6.442689 -3.181435 4.095013 -0.958265 0.181446 -0.288327 0.045014 0.031265 0.084431 0.35327 0.618348 -15.1838 23.315907 -26.739191 -63.569363 6.739904 -19.646965 -2.763043 0.017136 0.048628 -0.019959 0.460729 -0.293995 13.327774 25.824963 25.774464 47.382732 8.020845 39.95908 2.836724 0.150983 -0.147815 0.005668 -0.258343 -9.512163 4.619294 7.670314 -5.831923 2.017284 0.349477 1.663231 0.386064 -0.122808 0.165917 0.072977 -18.840292 -2.365284 -0.309434 21.608006 -0.048594 1.334211 0.125254 0.652043 0.351293 -0.003371 0.005075 0.005049 
0.046218 0.573867 1.801511 146.123886 -75.491264 144.189606 -1.112775 -0.213052 0.056242 -0.807912 -0.5345 1.056544 -5.13279 -2.647742 4.91946 -1.069195 0.156394 -0.306309 0.042911 0.05964 0.093575 0.481878 0.734446 -15.33142 21.982204 -26.307045 -64.234703 6.027971 -18.753855 -2.821368 0.015693 0.04765 -0.019636 0.48627 -0.710464 13.241578 25.384941 28.696592 45.738255 9.050083 38.844154 2.593614 0.163921 -0.146779 0.014429 1.870753 -9.659558 5.487604 6.544186 -5.757337 2.082922 0.361706 1.755685 0.41723 -0.117611 0.202958 0.070788 -17.82885 -2.765516 0.498822 22.648743 -0.269837 1.514676 0.230045 0.711756 0.379022 -0.004332 0.012743 0.006061 
0.027022 0.574327 1.797868 162.0448 -67.663544 160.086029 -1.141473 -0.252228 0.074733 -0.718666 -0.626794 1.116001 -4.192499 -2.295954 5.47333 -1.121068 0.138176 -0.318017 0.041586 0.063894 0.097378 0.576278 0.779121 -15.547353 20.514698 -25.789913 -65.004814 5.356952 -17.785467 -2.683799 0.017554 0.050976 -0.021385 0.480448 -1.010613 13.24439 25.224522 31.034365 44.04607 10.177209 37.889057 2.400113 0.158138 -0.143569 0.017586 2.337911 -9.709376 5.741794 7.460529 -5.784654 2.05341 0.498981 1.720447 0.373502 -0.140323 0.227806 0.078361 -17.392181 -2.812644 1.028272 22.56234 -0.44204 1.625422 0.220022 0.725723 0.415542 -0.000907 0.006265 0.001476 
0.001643 0.574014 1.792692 166.216064 -61.983173 164.369843 -1.166002 -0.265849 0.113436 -0.690274 -0.667126 1.154954 -3.536492 -2.138218 5.743421 -1.150363 0.123001 -0.345304 0.041781 0.051778 0.096086 0.671099 0.799043 -15.754646 19.335283 -25.463736 -65.642914 4.750602 -16.950636 -2.465616 0.020773 0.055097 -0.021908 0.476788 -1.176386 13.340048 25.163277 32.560272 42.80088 10.858284 37.178646 2.399776 0.138805 -0.141402 0.016604 1.970462 -9.66674 5.778414 9.206134 -5.863263 1.968254 0.674246 1.663239 0.331592 -0.170887 0.235259 0.088743 -17.592098 -2.648279 1.427925 22.77709 -0.429883 1.562004 0.200504 0.723983 0.444739 0.002098 -0.006136 -0.005077 
-0.028155 0.573368 1.785376 167.881195 -57.908783 166.208069 -1.163351 -0.278122 0.147725 -0.678788 -0.701935 1.184333 -3.039201 -2.080495 5.873297 -1.149524 0.115758 -0.360132 0.042025 0.031335 0.091485 0.729107 0.802911 -15.882607 18.421967 -25.228334 -66.038422 4.202971 -16.175713 -2.217964 0.025414 0.062231 -0.025323 0.468008 -1.329639 13.482692 24.878246 33.841934 42.125027 11.311005 35.849052 2.440313 0.10893 -0.137012 0.013723 1.412904 -9.676411 5.78072 10.903459 -5.959428 1.898986 0.846178 1.597912 0.292439 -0.201003 0.235843 0.099081 -17.888359 -2.331219 1.701092 23.036215 -0.353772 1.509569 0.156063 0.725774 0.471813 0.006819 -0.020565 -0.015243 
